<svg width="159px" height="74px" viewBox="0 0 159 74" version="1.1" xmlns="http://www.w3.org/2000/svg" xmlns:xlink="http://www.w3.org/1999/xlink">
    <title>Anara</title>
    <g id="Page-1" stroke="none" stroke-width="1" fill="none" fill-rule="evenodd">
        <g id="About" transform="translate(-50.000000, -27.000000)">
            <g id="Group-9-Copy" transform="translate(50.000000, 27.000000)">
                <g id="Group" transform="translate(-0.000000, 0.000000)">
                    <path d="M0,51.1658969 C0,60.4687872 6.24350233,63.1745456 12.9931693,66.8959923 C19.7428363,70.6169547 19.5742757,74 29.0238095,74 C38.4733433,74 38.3042998,70.6169547 45.0544497,66.8959923 C51.8045997,63.1745456 58.047619,60.4687872 58.047619,51.1658969 L58.047619,38.5090086 C58.047619,38.5090086 57.6462614,30.0964188 54.463896,25.1540163 C53.0323388,23.4484541 51.0762635,21.6751148 48.4290417,20.2125819 C44.0440524,17.7905191 38.8524838,15.3510278 34.9427483,13.5936645 C34.6495785,12.5610321 34.4752221,11.1047928 35.0427254,9.52945948 C36.127019,6.52402947 37.9618659,5.75330708 38.9901335,4.77538043 C35.6078138,4.93949782 33.3440794,5.65696678 31.8333131,6.60778259 C31.0368766,3.175841 29.0561693,0 29.0561693,0 C29.0349181,0 29.0141499,0.00823007576 28.9924157,0.0101665642 C28.9711645,0.00823007576 28.9503963,0 28.9286622,0 C28.9286622,0 26.9605124,3.15550787 26.158763,6.57486229 C24.6479968,5.64099075 22.3997177,4.93756133 19.0570025,4.77538043 C20.0852702,5.75330708 21.9206001,6.52402947 23.0044106,9.52945948 C23.5723969,11.1047928 23.3980406,12.5610321 23.1043878,13.5936645 C19.1946523,15.3510278 14.0030837,17.7905191 9.61809433,20.2125819 C6.1840956,22.1093723 3.91070151,24.530467 2.44098869,26.6475329 C1.04420608,29.5164405 0.341950928,33.0210004 0,35.4754995 L0,51.1658969 Z" id="Path" fill="#FFFFFF"></path>
                    <path d="M24.9160615,45.1714273 C25.6859426,42.5442563 26.7694483,39.804684 28.26185,36.9908161 L28.7415112,36.0570577 L28.7415112,36.042549 L28.7450908,36.0499402 L28.7489457,36.042549 L28.7489457,36.0570577 L29.2286069,36.9908161 C30.7210086,39.804684 31.8045143,42.5442563 32.5743403,45.1714273 L32.5743403,25.4980041 L32.4644753,24.5141496 C32.3703603,23.6745608 31.9556819,22.8951969 31.2967673,22.3200499 C30.627114,21.7353216 29.7608601,21.4120238 28.8563325,21.4090126 C28.842565,21.4095601 28.8285221,21.4098338 28.8147545,21.4098338 L28.8147545,21.42051 C28.7916251,21.4185938 28.7684956,21.4180463 28.7450908,21.4169513 C28.7219613,21.4180463 28.6988318,21.4185938 28.6757023,21.42051 L28.6757023,21.4098338 C28.6619348,21.4098338 28.6478919,21.4095601 28.6341244,21.4090126 C27.7295968,21.4120238 26.8633429,21.7353216 26.1936896,22.3200499 C25.534775,22.8951969 25.1200965,23.6745608 25.0262019,24.5141496 L24.8948595,25.6882598 L24.8948595,26.1905896 L24.9160615,26.1905896 L24.9160615,45.1714273 Z" id="Fill-1" fill="#FFFFFF"></path>
                    <path d="M23.1949809,47.4988154 C23.0330746,47.3583821 22.8653859,47.2278038 22.6930163,47.1070804 C22.5206466,46.986357 22.343596,46.8752148 22.1621398,46.7736539 C22.071274,46.7227365 21.9793068,46.6742829 21.8867889,46.6280193 C21.6081339,46.489776 21.3206675,46.3723376 21.0260421,46.2748828 C20.9280172,46.2425804 20.8288909,46.2121943 20.7292139,46.1842719 C20.6121898,46.1511482 20.4937889,46.1224046 20.3748373,46.0953034 C19.987694,46.0077036 19.5917394,45.9510376 19.1905532,45.9247576 C18.9807358,45.9110702 18.7695417,45.9055952 18.5575215,45.9080589 C18.2494039,45.9116177 17.9396342,45.9321489 17.6301398,45.9685575 C17.3886571,45.9964799 17.1474497,46.0345311 16.9073438,46.0818897 C16.7132214,46.1196671 16.5202004,46.1631932 16.3280055,46.2130155 C16.1963878,46.2472342 16.0655962,46.2841903 15.9353552,46.3236102 C15.8376056,46.3531751 15.7401314,46.3843825 15.6432079,46.4169587 C15.3524374,46.5149609 15.0652464,46.626103 14.7835625,46.7501114 C14.9870468,46.8125262 15.1908064,46.884796 15.3945661,46.9671945 C15.7002056,47.0906554 16.005845,47.2368375 16.3112091,47.4051932 C16.6165733,47.5732752 16.9222127,47.7640784 17.2273015,47.9770553 C17.6342701,48.2609332 18.0404126,48.584231 18.4460044,48.9472224 C18.5990995,49.0838232 18.7513686,49.2278153 18.9041883,49.3756399 C18.9672436,49.4366859 19.030299,49.498827 19.0933543,49.5617893 C19.2825204,49.7504025 19.4716864,49.9472282 19.6603018,50.153635 L19.6622292,50.1560988 L19.6881122,50.1859374 C20.5364683,51.2404193 21.2675248,52.3055774 21.919005,53.4424577 C22.0164792,53.6130035 22.1125766,53.7851917 22.2067466,53.9592962 C22.3480016,54.2201792 22.4856771,54.4851684 22.6200483,54.7550851 C22.7544195,55.0250018 22.8852112,55.299846 23.0135247,55.5798914 L23.018481,55.5911151 L23.0212345,55.5974113 C23.049045,55.6628374 23.075754,55.7288109 23.1027384,55.7947845 C23.1674458,55.952464 23.2313272,56.110691 23.2932812,56.2700131 C23.2990636,53.8640315 23.5284308,51.2434305 24.096755,48.4626863 C23.9588042,48.2814644 23.8145204,48.1106449 23.6639035,47.9502279 C23.5135619,47.7895371 23.3568872,47.6392488 23.1949809,47.4988154" id="Fill-2" fill="#FFFFFF"></path>
                    <path d="M24.1600582,47.958632 C24.1597828,48.0908528 24.1468414,48.1560051 24.1460153,48.1590164 L24.1460153,48.1587426 C24.1471167,48.1551839 24.1597828,48.0900316 24.1600582,47.958632" id="Fill-3" fill="#DE899B"></path>
                    <path d="M23.1972113,45.8141356 C23.0424641,45.521224 22.8651381,45.1984737 22.670465,44.8675109 C22.0352306,43.7870229 21.4211981,42.9646803 20.8914231,42.4763118 C20.6582009,42.5483078 20.4109358,42.5869065 20.1543088,42.5869065 C18.7789312,42.5869065 17.6599052,41.4746635 17.6599052,40.1071769 C17.6599052,38.7397997 18.7789312,37.6275567 20.1543088,37.6275567 C21.5296864,37.6275567 22.6487123,38.7397997 22.6487123,40.1071769 C22.6487123,40.2593814 22.6338434,40.4080272 22.6074097,40.5528405 C22.528384,40.98301 22.3381165,41.3750188 22.0663452,41.6974954 C22.0911268,41.722954 22.1161837,41.750329 22.1412407,41.7768826 C22.5892365,42.2499212 23.0537535,42.8672256 23.5320379,43.6263321 L23.5320379,26.4153377 L23.5309365,26.4147902 C23.5309365,26.4147902 23.3929857,25.9891102 22.8937746,25.5270215 L22.7577513,25.4128681 C22.6434807,25.3167822 22.5234277,25.2289087 22.3989691,25.1481527 C22.1847461,25.0123731 21.9328001,24.882616 21.6365225,24.7698313 C21.6332183,24.7687363 21.6307402,24.7676413 21.6274359,24.7665463 C21.2243223,24.6225542 20.7944996,24.5469995 20.3572424,24.5469995 C18.3496592,24.5469995 16.7162778,26.1073698 16.7162778,28.0249829 L16.7162778,41.8685886 C17.6882664,42.3928183 18.8576815,43.2677207 19.2985183,44.5798005 C20.7465885,44.6726015 22.0693741,45.0969127 23.1972113,45.8141356 Z" id="Fill-4" fill="#FFFFFF"></path>
                    <path d="M36.9284636,41.1330793 C37.0548496,41.1829016 37.1922497,41.2110978 37.3359829,41.2110978 C37.9483632,41.2110978 38.4467483,40.7158855 38.4467483,40.1071769 C38.4467483,39.4986324 37.9483632,39.0034201 37.3359829,39.0034201 C36.8042804,39.0034201 36.359038,39.3773615 36.2511005,39.87449 C36.2348547,39.9497711 36.2257682,40.0275158 36.2257682,40.1071769 C36.2257682,40.5728242 36.5176401,40.9710198 36.9284636,41.1330793" id="Fill-5" fill="#FFFFFF"></path>
                    <path d="M33.3442213,48.158989 C33.3436706,48.1559777 33.3307291,48.0908254 33.3301784,47.9586046 C33.3307291,48.0900042 33.3433952,48.1551565 33.3442213,48.1587152 L33.3442213,48.158989 Z" id="Fill-6" fill="#DE899B"></path>
                    <path d="M35.4242218,41.6974132 C35.1524505,41.3749367 34.9619077,40.9832016 34.8831573,40.5528405 C34.8564483,40.408301 34.84213,40.2593814 34.84213,40.1071769 C34.84213,38.7397997 35.9608806,37.6275567 37.3359829,37.6275567 C38.7113605,37.6275567 39.8303864,38.7397997 39.8303864,40.1071769 C39.8303864,41.4745814 38.7113605,42.5870981 37.3359829,42.5870981 C37.0796312,42.5870981 36.8320908,42.5482257 36.599144,42.4765034 C36.0690935,42.9645982 35.4550611,43.7869408 34.820102,44.8677025 C34.6257043,45.1986653 34.4478276,45.5214156 34.2933558,45.8140535 C35.4211929,45.0968306 36.7439785,44.6725194 38.1920487,44.5797184 C38.6326101,43.2676386 39.8020253,42.3927362 40.7742892,41.8685065 L40.7742892,28.0249829 C40.7742892,26.1073698 39.1409078,24.5469995 37.1333246,24.5469995 C36.6922125,24.5469995 36.2588103,24.6236492 35.8526677,24.7701051 C35.5665782,24.8790572 35.3215159,25.0038869 35.1122492,25.1344652 C34.9803562,25.2190537 34.8534194,25.3115809 34.7328157,25.4128681 L34.5821988,25.5393403 C34.0937264,25.9967751 33.9582537,26.4147902 33.9582537,26.4147902 L33.9582537,43.62625 C34.4368136,42.8671435 34.9013305,42.2498391 35.3493263,41.7768005 C35.3741079,41.7502468 35.3991649,41.7228719 35.4242218,41.6974132" id="Fill-7" fill="#FFFFFF"></path>
                    <path d="M34.3875258,55.7948392 C34.4147855,55.7288657 34.4414945,55.6628921 34.469305,55.5974661 L34.4720585,55.5911698 L34.4767394,55.5799461 C34.6050529,55.299627 34.73612,55.0250565 34.8702158,54.7551398 C35.0045871,54.4852231 35.1422625,54.2202339 35.2835175,53.9590772 C35.3779628,53.7852465 35.4737849,53.6130582 35.5715345,53.4425125 C36.2227393,52.3056321 36.9537959,51.240474 37.8021519,50.1859922 L37.8280349,50.1558798 L37.8302377,50.1536898 C38.018853,49.9472829 38.2077437,49.7504572 38.3971851,49.5615703 C38.4602405,49.498608 38.5232958,49.4367407 38.5863512,49.3756946 C38.7388956,49.22787 38.89144,49.0836042 39.0442597,48.9470034 C39.4498515,48.5842857 39.8562694,48.2609879 40.263238,47.9768363 C40.5680514,47.7641332 40.8736909,47.57333 41.179055,47.405248 C41.4846945,47.2368922 41.7903339,47.0907102 42.095698,46.9672493 C42.2994577,46.8848508 42.5034927,46.8123072 42.706977,46.7498924 C42.4250177,46.6261578 42.1378267,46.5150156 41.8473316,46.4170134 C41.7501327,46.3844373 41.6529338,46.3532299 41.5549089,46.323665 C41.4249433,46.2839713 41.2938763,46.2472889 41.1622586,46.2130703 C40.970339,46.1629742 40.7770427,46.1197218 40.5831957,46.0819444 C40.3428144,46.0345858 40.101607,45.9965347 39.8603997,45.9683385 C39.5506299,45.9322036 39.2408602,45.9113987 38.9330179,45.9081137 C38.7207224,45.9056499 38.5098036,45.9111249 38.2999863,45.9248124 C37.8988001,45.9510923 37.5025702,46.0077584 37.1154268,46.0953581 C36.9967506,46.1224593 36.8783497,46.151203 36.7610503,46.1843266 C36.6613732,46.212249 36.5622469,46.2423614 36.464222,46.2749376 C36.1698719,46.3723923 35.8824056,46.4898307 35.6037506,46.628074 C35.5109573,46.6743377 35.4189901,46.7227913 35.3283997,46.7734349 C35.1469435,46.8752696 34.9696175,46.9864117 34.7972478,47.1071351 C34.6248782,47.2278585 34.4574649,47.3584369 34.2955586,47.4988702 C34.1333769,47.6393035 33.9769776,47.7895918 33.8263607,47.9502826 C33.6760191,48.1106996 33.5314599,48.2815191 33.3937845,48.4627411 C33.9618333,51.2434853 34.1914759,53.8640862 34.1969829,56.2697941 C34.2589369,56.1107458 34.3228183,55.9525188 34.3875258,55.7948392" id="Fill-8" fill="#FFFFFF"></path>
                    <path d="M20.1542813,39.0034201 C19.5419009,39.0034201 19.0437912,39.4986324 19.0437912,40.1071769 C19.0437912,40.7159403 19.5419009,41.2111526 20.1542813,41.2111526 C20.2982898,41.2111526 20.4356898,41.1829564 20.5620759,41.133134 C20.9728994,40.9708008 21.2647713,40.5728242 21.2647713,40.1071769 C21.2647713,40.0275158 21.2556847,39.9497711 21.2391637,39.87449 C21.1315015,39.3773615 20.6862591,39.0034201 20.1542813,39.0034201" id="Fill-9" fill="#FFFFFF"></path>
                    <path d="M38.8531662,51.0493971 C37.5763642,52.6387849 36.5809708,54.2544526 35.7218761,56.1320982 C34.7341925,58.4666313 34.1003348,61.0354936 33.5248515,63.5673998 C33.4940122,63.7313756 33.4628975,63.8945301 33.4306815,64.0538521 C33.2897018,64.7489013 33.1349546,65.4165756 32.9708455,66.0557799 C34.6942666,65.5244327 36.0591809,64.6103842 37.2919267,63.2213808 C39.6117578,60.6084449 41.5067225,56.1890381 43.638489,50.3573592 C43.7029211,50.180791 43.7679039,50.0034015 43.8328867,49.823822 L43.8584943,49.7531947 L43.8918118,49.6858524 C44.2219575,49.0143457 44.5677982,48.3943038 44.9271311,47.8227155 L44.7660508,47.8158718 C42.8743903,47.7540044 40.8780965,48.8399675 38.8531662,51.0493971" id="Fill-10" fill="#FFFFFF"></path>
                    <path d="M42.5811416,42.7021822 L41.4775353,43.0544974 C41.3643661,43.1141748 41.2476174,43.1796008 41.1303179,43.2505019 C40.6349617,43.5508047 40.043508,44.0033121 39.6960152,44.5995378 C41.5992404,44.7657036 43.5322035,45.4530878 45.1485132,46.5601295 L45.6157836,46.8103363 C46.3523472,45.8155317 47.140126,45.0148154 47.9730624,44.4194109 C48.3178017,44.1733104 48.6551065,43.972926 48.9800205,43.8105927 C47.9223978,43.2168307 46.1832817,42.437193 44.3453147,42.437193 C43.7254999,42.437193 43.1318434,42.5264353 42.5811416,42.7021822" id="Fill-11" fill="#FFFFFF"></path>
                    <path d="M32.711465,53.3435248 C32.6255555,52.2717967 32.4906336,51.1653025 32.2984938,50.0281484 C30.9341302,52.4223588 30.2699839,54.8379216 29.7828882,57.6285208 C29.7327743,57.9170524 29.6840372,58.2096903 29.6369522,58.5067081 C29.4040054,60.0503798 29.2891841,61.5412179 29.2401716,63.0222009 L29.2401716,66.6315839 C30.0948607,66.604209 30.7375297,66.5319392 31.4639053,66.4090258 C31.5076861,66.2518938 31.5509161,66.093393 31.5933202,65.9321548 C31.6544481,65.6679868 31.7147499,65.4027238 31.7747764,65.1374609 C31.8345275,64.8719242 31.8942787,64.6063875 31.9540298,64.3400295 C32.0319541,63.992368 32.1104291,63.6433378 32.1897302,63.2934864 C32.2519595,62.9644399 32.3108846,62.6263596 32.3662301,62.2795194 C32.4034024,62.0479276 32.4386474,61.8125033 32.4719097,61.5735203 C32.53882,61.0952804 32.5982958,60.6014369 32.648685,60.0930847 C32.6740173,59.8390454 32.6971468,59.5811737 32.7175227,59.320017 C32.7376233,59.0662515 32.7549704,58.8089272 32.7701147,58.5485918 C32.7780999,58.4067897 32.7858097,58.2638926 32.7924182,58.1201743 C32.8238082,57.4407288 32.8381264,56.7399309 32.8312426,56.0194231 C32.8229821,55.1549231 32.785259,54.2619533 32.711465,53.3435248" id="Fill-12" fill="#FFFFFF"></path>
                    <path d="M16.3600288,43.2506387 C16.2427294,43.1797377 16.126256,43.1143116 16.0128114,43.0546343 L14.9092051,42.7023191 C14.3585034,42.5262984 13.7651222,42.4373299 13.1450321,42.4373299 C11.307065,42.4373299 9.5679489,43.2169676 8.5103262,43.8104558 C8.83551558,43.9730628 9.17254505,44.1734472 9.51728434,44.4195477 C10.3504961,45.0149522 11.1379996,45.8156686 11.8745632,46.8104731 L12.3421089,46.5602664 C13.9581432,45.4529509 15.8911063,44.7655667 17.7943315,44.599401 C17.4468387,44.003449 16.8553851,43.5506678 16.3600288,43.2506387" id="Fill-13" fill="#FFFFFF"></path>
                    <path d="M23.9654953,63.5674272 C23.3900119,61.0352472 22.7564296,58.4666586 21.7684707,56.1321256 C20.9093759,54.2544799 19.9142579,52.6388123 18.6371806,51.0494245 C16.6122502,48.8399948 14.6162318,47.7540318 12.7245713,47.8158991 L12.563491,47.8227429 C12.9228239,48.3943312 13.2683893,49.0143731 13.5988103,49.6858798 L13.6318524,49.7532221 L13.65746,49.8238494 C13.7227182,50.0034289 13.7874257,50.1808183 13.8518578,50.3573866 C15.9836242,56.1890654 17.8788643,60.6084723 20.19842,63.2214082 C21.4314412,64.6104116 22.7960801,65.5244601 24.5197766,66.0558073 C24.3553921,65.4166029 24.2006449,64.7489287 24.0599406,64.0538795 C24.0277246,63.8945575 23.9963346,63.731403 23.9654953,63.5674272" id="Fill-14" fill="#FFFFFF"></path>
                    <path d="M29.808248,52.1251493 C29.8569851,51.9967609 29.907099,51.8686463 29.9585896,51.7408054 C30.3192992,50.8459193 30.7493973,49.964447 31.2728393,49.0799634 L31.3168954,49.0055036 L31.3782987,48.9444575 C31.4052831,48.9176301 31.4311661,48.8908027 31.4556723,48.863154 C31.4804539,48.8360528 31.5044094,48.8084042 31.5275389,48.780208 C31.5737978,48.7235419 31.6175786,48.6646858 31.6616347,48.6017235 C31.6977057,48.5502587 31.734052,48.4963301 31.7720504,48.4380215 C31.8100489,48.3799867 31.8496994,48.3178456 31.8926541,48.2505033 C31.9075231,48.2272347 31.9237688,48.201776 31.9389131,48.1779598 C31.3135912,45.3298733 30.3170964,42.3142523 28.8147821,39.1912121 C28.7916526,39.1435797 28.7682478,39.0953999 28.7451183,39.0477675 C28.7222642,39.0953999 28.698584,39.1435797 28.6757299,39.1912121 C27.1736909,42.3142523 26.1769207,45.3298733 25.5515989,48.1779598 C25.5667432,48.201776 25.5829889,48.2272347 25.5978578,48.2505033 C25.6408126,48.3178456 25.6804631,48.3799867 25.7184615,48.4380215 C25.7564599,48.4963301 25.7925309,48.5502587 25.8286019,48.6017235 C25.872658,48.6646858 25.9167141,48.7235419 25.9629731,48.780208 C25.9861026,48.8084042 26.0097827,48.8360528 26.0345643,48.863154 C26.0593459,48.8908027 26.0852289,48.9176301 26.1122133,48.9444575 L26.1736165,49.0055036 L26.2176727,49.0799634 C26.7408393,49.964447 27.1709374,50.8459193 27.531647,51.7408054 C27.583413,51.8686463 27.6335268,51.9967609 27.6822639,52.1251493 C27.8739081,52.6293953 28.0446257,53.1388425 28.1988222,53.655681 C28.3780756,54.2579292 28.5347502,54.8705799 28.6757299,55.4985605 C28.6994101,55.6045014 28.7222642,55.7112636 28.7451183,55.8180258 C28.7679724,55.7112636 28.7911019,55.6045014 28.8147821,55.4985605 C28.9554864,54.8705799 29.1124364,54.2579292 29.2916898,53.655681 C29.4458863,53.1388425 29.6166038,52.6293953 29.808248,52.1251493" id="Fill-15" fill="#FFFFFF"></path>
                    <path d="M27.7074861,57.628466 C27.2203904,54.8381406 26.5562441,52.422304 25.1918805,50.0280937 C24.9996856,51.1655215 24.865039,52.2720157 24.7791296,53.34347 C24.7053355,54.2621723 24.6670618,55.1548684 24.6590766,56.0196421 C24.6524682,56.7398762 24.6665111,57.4406741 24.6979011,58.1201195 C24.7045095,58.2638379 24.7122193,58.4067349 24.7202045,58.548537 C24.7353488,58.8088725 24.7529712,59.0661967 24.7727965,59.3199622 C24.7934478,59.5811189 24.8163019,59.8389907 24.8413589,60.0930299 C24.8920234,60.6013822 24.9514992,61.0952257 25.0184095,61.5734655 C25.0517269,61.8127223 25.0872472,62.0481466 25.1241442,62.2794647 C25.1794897,62.6263049 25.2384148,62.9643851 25.3003688,63.2934316 C25.3799452,63.6432831 25.4584202,63.992587 25.5363445,64.3402485 C25.5960956,64.6063327 25.6558467,64.8718694 25.7158732,65.1374061 C25.7756244,65.4026691 25.8359262,65.6679321 25.8970541,65.9321 C25.9394581,66.0933383 25.9826882,66.2518391 26.0267444,66.4089711 C26.7528446,66.5318845 27.3955135,66.604428 28.250478,66.6315292 L28.250478,63.0224199 C28.2011902,61.5411631 28.0863689,60.050325 27.853422,58.5066534 C27.806337,58.2099093 27.7578753,57.9169977 27.7074861,57.628466" id="Fill-16" fill="#FFFFFF"></path>
                    <path d="M47.9730624,44.4195477 C47.140126,45.0149522 46.3523472,45.8156686 45.6157836,46.8104731 L45.1485132,46.5602664 C43.5322035,45.4529509 41.5992404,44.7655667 39.6960152,44.599401 C40.043508,44.003449 40.6349617,43.5506678 41.1303179,43.2506387 C41.2476174,43.1797377 41.3643661,43.1143116 41.4775353,43.0546343 L42.5811416,42.7023191 C43.1318434,42.5262984 43.7254999,42.4373299 44.3453147,42.4373299 C46.1832817,42.4373299 47.9223978,43.2169676 48.9800205,43.8104558 C48.6551065,43.9730628 48.3178017,44.1734472 47.9730624,44.4195477 L47.9730624,44.4195477 Z M43.8918118,49.6856608 L43.8584943,49.7532769 L43.8328867,49.8239041 C43.7679039,50.0034836 43.7029211,50.1808731 43.638489,50.3571676 C41.5067225,56.1891202 39.6117578,60.608527 37.2919267,63.221463 C36.0589055,64.6101926 34.6942666,65.5245149 32.9708455,66.055862 C33.1349546,65.4166577 33.2897018,64.7489834 33.4306815,64.0539342 C33.4628975,63.8946122 33.4940122,63.731184 33.5248515,63.5674819 C34.1003348,61.035302 34.7341925,58.4664396 35.7218761,56.1321803 C36.5809708,54.2545347 37.5763642,52.6385933 38.8531662,51.0494792 C40.8780965,48.8400496 42.874115,47.7540866 44.7660508,47.8159539 L44.9268557,47.8227976 C44.5677982,48.3943859 44.2219575,49.0144278 43.8918118,49.6856608 L43.8918118,49.6856608 Z M32.7924182,58.1201469 C32.7858097,58.2638652 32.7780999,58.4067623 32.7701147,58.5485644 C32.7549704,58.8088999 32.7376233,59.0662241 32.7177981,59.3199896 C32.6971468,59.5811463 32.6740173,59.839018 32.6489604,60.0930573 C32.5982958,60.6014095 32.53882,61.0952531 32.4719097,61.5734929 C32.4385923,61.8127497 32.4033474,62.0479002 32.366175,62.279492 C32.3108295,62.6263322 32.2519044,62.9644125 32.1899504,63.293459 C32.1106494,63.6433105 32.031899,63.9926144 31.9539748,64.3402759 C31.8942236,64.6063601 31.8347478,64.8718968 31.7747213,65.1374335 C31.7146948,65.4026965 31.654393,65.6679594 31.5935405,65.9321274 C31.5508611,66.0933657 31.507631,66.2518664 31.4638502,66.4089985 C30.7374746,66.5319119 30.0948057,66.6044554 29.2401166,66.6315566 L29.2401166,63.0221736 C29.2894044,61.5411905 29.4039503,60.0503524 29.6368972,58.5066808 C29.6839822,58.2096629 29.7327193,57.917025 29.7828331,57.6284934 C30.2699288,54.838168 30.9340751,52.4223314 32.2984387,50.028121 C32.4906336,51.1655489 32.6255555,52.2720431 32.711465,53.3434974 C32.785259,54.2621997 32.8229821,55.1548958 32.8312426,56.0196694 C32.8381264,56.7399035 32.8238082,57.4407014 32.7924182,58.1201469 L32.7924182,58.1201469 Z M28.7450357,55.81819 C28.7221816,55.7114278 28.6993275,55.6043919 28.6756473,55.498451 C28.534943,54.8707441 28.377993,54.2578197 28.1987396,53.6558452 C28.0445431,53.138733 27.8738255,52.6295595 27.6821813,52.1250398 C27.6334442,51.9966514 27.5833304,51.8685368 27.5318398,51.7406959 C27.1711301,50.8460836 26.7410321,49.9646112 26.21759,49.0801276 L26.1738093,49.0056678 L26.1121307,48.9446218 C26.0851463,48.9177943 26.0595386,48.8906932 26.0347571,48.8633183 C26.0097001,48.8359433 25.98602,48.8082947 25.9628905,48.7800985 C25.9166315,48.7237062 25.8725754,48.6648501 25.8285193,48.601614 C25.7924483,48.5504229 25.7563773,48.4962206 25.7183789,48.4381858 C25.6806558,48.3798772 25.64073,48.3177361 25.5977752,48.2503938 C25.5831816,48.2271252 25.5666606,48.2019402 25.5515163,48.1778503 C26.1768381,45.3297638 27.1736083,42.3141428 28.6756473,39.1914858 C28.6985014,39.1435797 28.7221816,39.0956736 28.7450357,39.0477675 C28.7681652,39.0956736 28.79157,39.1435797 28.8146995,39.1914858 C30.3170138,42.3141428 31.3135086,45.3297638 31.9391058,48.1778503 C31.9236862,48.2019402 31.9074405,48.2271252 31.8928469,48.2503938 C31.8496168,48.3177361 31.8099662,48.3798772 31.7719678,48.4381858 C31.7339694,48.4962206 31.6978984,48.5504229 31.6618275,48.601614 C31.6177713,48.6648501 31.5737152,48.7237062 31.5274563,48.7800985 C31.5043268,48.8082947 31.4806466,48.8359433 31.455865,48.8633183 C31.4310834,48.8906932 31.4052005,48.9177943 31.3782161,48.9446218 L31.3168128,49.0056678 L31.273032,49.0801276 C30.7493147,49.9646112 30.319492,50.8460836 29.958507,51.7406959 C29.9072917,51.8685368 29.8569025,51.9966514 29.8081654,52.1250398 C29.6165212,52.6295595 29.4458037,53.138733 29.2916072,53.6558452 C29.1123538,54.2578197 28.9554038,54.8707441 28.8146995,55.498451 C28.7910193,55.6043919 28.7678898,55.7114278 28.7450357,55.81819 L28.7450357,55.81819 Z M28.2505055,66.6315566 C27.3955411,66.6044554 26.7528721,66.5319119 26.0264965,66.4089985 C25.9827158,66.2518664 25.9394857,66.0933657 25.8970816,65.9321274 C25.8359537,65.6679594 25.7756519,65.4026965 25.7156254,65.1374335 C25.6558743,64.8718968 25.5961231,64.6063601 25.536372,64.3402759 C25.4584477,63.9926144 25.3799727,63.6433105 25.3003963,63.293459 C25.2384423,62.9644125 25.1795173,62.6263322 25.1241717,62.279492 C25.0872747,62.0479002 25.0517545,61.8127497 25.018437,61.5734929 C24.9515267,61.0952531 24.892051,60.6014095 24.8413864,60.0930573 C24.8163295,59.839018 24.7932,59.5811463 24.772824,59.3199896 C24.7527234,59.0662241 24.7353763,58.8088999 24.720232,58.5485644 C24.7119715,58.4067623 24.704537,58.2638652 24.6979286,58.1201469 C24.6662632,57.4407014 24.6524957,56.7399035 24.6591041,56.0196694 C24.6670893,55.1548958 24.7053631,54.2621997 24.7791571,53.3434974 C24.8650666,52.2720431 24.9994378,51.1655489 25.191908,50.028121 C26.5562716,52.4223314 27.2204179,54.838168 27.7075136,57.6284934 C27.7576275,57.917025 27.8063646,58.2096629 27.8534496,58.5066808 C28.0863964,60.0503524 28.2012177,61.5411905 28.2505055,63.0224473 L28.2505055,66.6315566 Z M20.19842,63.221463 C17.8788643,60.608527 15.9836242,56.1891202 13.8518578,50.3571676 C13.7874257,50.1808731 13.7227182,50.0034836 13.65746,49.8239041 L13.6318524,49.7532769 L13.5988103,49.6856608 C13.2683893,49.0144278 12.9228239,48.3943859 12.563491,47.8227976 L12.7245713,47.8159539 C14.6162318,47.7540866 16.6122502,48.8400496 18.6371806,51.0494792 C19.9142579,52.6385933 20.9093759,54.2545347 21.768746,56.1321803 C22.7564296,58.4664396 23.3900119,61.035302 23.9654953,63.5674819 C23.9963346,63.731184 24.0277246,63.8946122 24.0599406,64.0539342 C24.2009203,64.7489834 24.3553921,65.4166577 24.5197766,66.055862 C22.7960801,65.5245149 21.4314412,64.6101926 20.19842,63.221463 L20.19842,63.221463 Z M12.3421089,46.5602664 L11.8745632,46.8104731 C11.1379996,45.8156686 10.3504961,45.0149522 9.51728434,44.4195477 C9.17254505,44.1734472 8.83551558,43.9730628 8.5103262,43.8104558 C9.5679489,43.2169676 11.307065,42.4373299 13.1450321,42.4373299 C13.7651222,42.4373299 14.3585034,42.5262984 14.9092051,42.7023191 L16.0128114,43.0546343 C16.126256,43.1143116 16.2427294,43.1797377 16.3600288,43.2506387 C16.8553851,43.5506678 17.4468387,44.003449 17.7943315,44.599401 C15.8911063,44.7655667 13.9581432,45.4529509 12.3421089,46.5602664 L12.3421089,46.5602664 Z M21.2645786,40.1071769 C21.2645786,40.5728242 20.972982,40.9708555 20.5621585,41.1331888 C20.4357724,41.1830111 20.2983724,41.2112073 20.1543639,41.2112073 C19.5419835,41.2112073 19.0438738,40.715995 19.0438738,40.1071769 C19.0438738,39.4983587 19.5419835,39.0034201 20.1543639,39.0034201 C20.6860664,39.0034201 21.1315841,39.3773615 21.2392463,39.87449 C21.255492,39.9494973 21.2645786,40.0275158 21.2645786,40.1071769 L21.2645786,40.1071769 Z M16.7160575,28.0249829 C16.7160575,26.1073698 18.3497142,24.5469995 20.3572974,24.5469995 C20.7945546,24.5469995 21.2243773,24.622828 21.627491,24.7665463 C21.6307952,24.7679151 21.6332734,24.7687363 21.6365776,24.7701051 C21.9328551,24.8828897 22.1848012,25.0123731 22.3990242,25.1484264 C22.5234828,25.2291824 22.6435357,25.3170559 22.757531,25.4128681 L22.8935543,25.5272953 C23.3930408,25.9891102 23.5309916,26.4147902 23.5309916,26.4147902 L23.532093,26.4153377 L23.532093,43.6264964 C23.0538085,42.8671161 22.5892916,42.2498117 22.1412957,41.7767731 C22.1162388,41.7504932 22.0911819,41.7228445 22.0664003,41.6973859 C22.3378963,41.3749093 22.5284391,40.9831742 22.6074648,40.5528405 C22.6338985,40.408301 22.6484921,40.2593814 22.6484921,40.1071769 C22.6484921,38.7397997 21.5294661,37.6275567 20.1543639,37.6275567 C18.7789863,37.6275567 17.6599603,38.7397997 17.6599603,40.1071769 C17.6599603,41.474554 18.7789863,42.5870707 20.1543639,42.5870707 C20.4107155,42.5870707 20.658256,42.5481983 20.8914781,42.476476 C21.4212532,42.9648446 22.0352857,43.7869134 22.6705201,44.8676752 C22.8649178,45.1986379 23.0425191,45.5213882 23.1972663,45.8140261 C22.0691538,45.0968032 20.7466436,44.672492 19.2985733,44.579691 C18.8577366,43.2676112 17.6883215,42.3927088 16.7160575,41.8684791 L16.7160575,28.0249829 Z M23.6639861,47.950091 C23.814603,48.1107817 23.9588868,48.2816012 24.0968376,48.4628232 C23.5285134,51.2432937 23.2991462,53.8641684 23.2933638,56.2698762 C23.2314098,56.1108279 23.1675284,55.9526009 23.102821,55.7949214 C23.0758366,55.7289478 23.0488522,55.6629742 23.0210418,55.5975482 L23.0185636,55.591252 L23.0136073,55.5800282 C22.8852938,55.2997091 22.7545021,55.0251386 22.6201309,54.7552219 C22.4857597,54.4853053 22.3480842,54.2200423 22.2068293,53.9591593 C22.1126593,53.7850548 22.0165618,53.6128666 21.9188122,53.4423209 C21.2676074,52.3057142 20.5365509,51.2405562 19.6879195,50.1860743 L19.6623118,50.1559619 L19.660109,50.1534982 C19.4714937,49.9470913 19.282603,49.7505394 19.0934369,49.5616524 C19.0301062,49.4986901 18.9670509,49.4368228 18.9039955,49.375503 C18.7514512,49.2276784 18.5989068,49.0836864 18.446087,48.9470855 C18.0404952,48.5840941 17.6340773,48.2607963 17.2271087,47.9769184 C16.92202,47.7639415 16.6166559,47.5734121 16.3112917,47.4050564 C16.0056523,47.2369744 15.7000128,47.0907923 15.3946487,46.9673314 C15.190889,46.8849329 14.9871294,46.8123894 14.7833698,46.7499746 C15.0653291,46.6262399 15.3522447,46.5150978 15.6432905,46.4170955 C15.740214,46.3845194 15.8374129,46.3530382 15.9351625,46.3237471 C16.0656788,46.2840534 16.1964704,46.2470973 16.3280881,46.2128787 C16.5200077,46.1630563 16.713304,46.1198039 16.907151,46.0817528 C17.1475323,46.0346679 17.3887397,45.9966168 17.6299471,45.9684206 C17.9397168,45.9322857 18.2494865,45.9114808 18.5573288,45.9079221 C18.769349,45.9057321 18.9808184,45.9112071 19.1903605,45.9248945 C19.591822,45.9509007 19.9877766,46.0078405 20.3749199,46.0954403 C20.4938715,46.1222677 20.6122724,46.1512851 20.7292965,46.184135 C20.8289735,46.2120574 20.9278245,46.2424436 21.0261247,46.274746 C21.3207501,46.3722007 21.6082165,46.4896391 21.8865962,46.6281562 C21.9793894,46.674146 22.0713566,46.7228734 22.1619471,46.773517 C22.3434033,46.8750779 22.5207292,46.9862201 22.6930989,47.1069435 C22.8654685,47.2279406 23.0328819,47.3582452 23.1950635,47.4989523 C23.3569698,47.6391119 23.5133691,47.789674 23.6639861,47.950091 L23.6639861,47.950091 Z M24.1601683,47.9585772 C24.1596176,48.0899768 24.1469515,48.1551291 24.1461254,48.1586879 L24.1461254,48.1589616 C24.1466761,48.1559504 24.1596176,48.0907981 24.1601683,47.9585772 L24.1601683,47.9585772 Z M24.8948045,25.6882598 L25.0261468,24.5141496 C25.1200415,23.6745608 25.5347199,22.8951969 26.1936345,22.3200499 C26.8632878,21.7350478 27.7295417,21.4117501 28.6340693,21.4087388 C28.6478368,21.4092863 28.6618797,21.4095601 28.6756473,21.4098338 L28.6756473,21.4202363 C28.6987767,21.4185938 28.7219062,21.4180463 28.7450357,21.4166775 C28.7684405,21.4180463 28.79157,21.4185938 28.8146995,21.4202363 L28.8146995,21.4098338 C28.8287424,21.4095601 28.8425099,21.4092863 28.8562774,21.4087388 C29.7608051,21.4117501 30.6270589,21.7350478 31.2969876,22.3200499 C31.9556269,22.8951969 32.3703053,23.6745608 32.4644753,24.5141496 L32.5743403,25.4977304 L32.5743403,45.1715368 C31.8044592,42.5443658 30.7209535,39.804684 29.2285518,36.9905424 L28.749166,36.0570577 L28.749166,36.042549 L28.7450357,36.0496664 L28.7414561,36.042549 L28.7414561,36.0570577 L28.2617949,36.9905424 C26.7693932,39.804684 25.6858875,42.5443658 24.9160065,45.1715368 L24.9160065,26.1905896 L24.8948045,26.1905896 L24.8948045,25.6882598 Z M33.3442213,48.1589616 L33.3442213,48.1586879 C33.3433952,48.1551291 33.3307291,48.0899768 33.3301784,47.9585772 C33.3307291,48.0907981 33.3436706,48.1559504 33.3442213,48.1589616 L33.3442213,48.1589616 Z M33.3937845,48.4628232 C33.5314599,48.2816012 33.6760191,48.1107817 33.8263607,47.950091 C33.9769776,47.789674 34.1333769,47.6391119 34.2955586,47.4989523 C34.4574649,47.3582452 34.6248782,47.2279406 34.7972478,47.1069435 C34.9696175,46.9862201 35.1469435,46.8750779 35.3283997,46.773517 C35.4189901,46.7228734 35.5109573,46.674146 35.6037506,46.6281562 C35.8824056,46.4896391 36.1698719,46.3722007 36.464222,46.274746 C36.5625223,46.2424436 36.6613732,46.2120574 36.7610503,46.184135 C36.8783497,46.1512851 36.9967506,46.1222677 37.1154268,46.0954403 C37.5028455,46.0078405 37.8988001,45.9509007 38.2999863,45.9248945 C38.5098036,45.9112071 38.7207224,45.9057321 38.9330179,45.9079221 C39.2408602,45.9114808 39.5506299,45.9322857 39.8603997,45.9684206 C40.101607,45.9966168 40.3428144,46.0346679 40.5831957,46.0817528 C40.7770427,46.1198039 40.970339,46.1630563 41.1625339,46.2128787 C41.2938763,46.2470973 41.4249433,46.2840534 41.5549089,46.3237471 C41.6529338,46.3530382 41.7501327,46.3845194 41.8473316,46.4170955 C42.1381021,46.5150978 42.425293,46.6262399 42.706977,46.7499746 C42.5034927,46.8123894 42.299733,46.8849329 42.095698,46.9673314 C41.7903339,47.0907923 41.4849698,47.2369744 41.179055,47.4050564 C40.8736909,47.5734121 40.5680514,47.7639415 40.263238,47.9769184 C39.8562694,48.2607963 39.4498515,48.5840941 39.0442597,48.9470855 C38.8917153,49.0836864 38.7388956,49.2276784 38.5863512,49.375503 C38.5232958,49.4368228 38.4602405,49.4986901 38.3971851,49.5616524 C38.2077437,49.7505394 38.0191284,49.9470913 37.8302377,50.1534982 L37.8280349,50.1559619 L37.8021519,50.1860743 C36.9537959,51.2405562 36.2227393,52.3057142 35.5715345,53.4423209 C35.4737849,53.6128666 35.3779628,53.7850548 35.2835175,53.9591593 C35.1422625,54.2200423 35.0045871,54.4853053 34.8702158,54.7552219 C34.73612,55.0251386 34.6050529,55.2997091 34.4767394,55.5800282 L34.4720585,55.591252 L34.469305,55.5975482 C34.4414945,55.6629742 34.4147855,55.7289478 34.3875258,55.7949214 C34.3228183,55.9526009 34.2589369,56.1108279 34.1969829,56.2698762 C34.1914759,53.8641684 33.9618333,51.2432937 33.3937845,48.4628232 L33.3937845,48.4628232 Z M36.2257682,40.1071769 C36.2257682,40.0275158 36.2348547,39.9494973 36.2511005,39.87449 C36.3587626,39.3773615 36.804005,39.0034201 37.3359829,39.0034201 C37.9483632,39.0034201 38.4464729,39.4983587 38.4464729,40.1071769 C38.4464729,40.715995 37.9483632,41.2112073 37.3359829,41.2112073 C37.1922497,41.2112073 37.0548496,41.1830111 36.9284636,41.1331888 C36.5173647,40.9708555 36.2257682,40.5728242 36.2257682,40.1071769 L36.2257682,40.1071769 Z M33.9582537,26.4147902 C33.9582537,26.4147902 34.0937264,25.9967751 34.5821988,25.5393403 L34.7328157,25.4128681 C34.8534194,25.3115809 34.9800808,25.2190537 35.1122492,25.1344652 C35.3215159,25.0038869 35.5663028,24.8790572 35.8523924,24.7701051 C36.2588103,24.623923 36.6922125,24.5469995 37.1333246,24.5469995 C39.1409078,24.5469995 40.7740139,26.1073698 40.7740139,28.0249829 L40.7740139,41.8684791 C39.8020253,42.3927088 38.6326101,43.2676112 38.1920487,44.579691 C36.7439785,44.672492 35.4211929,45.0968032 34.2930804,45.8140261 C34.4478276,45.5213882 34.6254289,45.1986379 34.8198266,44.8676752 C35.4550611,43.7869134 36.0690935,42.9648446 36.5988686,42.476476 C36.8320908,42.5481983 37.0793559,42.5870707 37.3359829,42.5870707 C38.7113605,42.5870707 39.8303864,41.474554 39.8303864,40.1071769 C39.8303864,38.7397997 38.7113605,37.6275567 37.3359829,37.6275567 C35.9608806,37.6275567 34.84213,38.7397997 34.84213,40.1071769 C34.84213,40.2593814 34.8564483,40.408301 34.8831573,40.5528405 C34.9619077,40.9831742 35.1521751,41.3749093 35.4242218,41.6973859 C35.3991649,41.7228445 35.3741079,41.7504932 35.349051,41.7767731 C34.9010551,42.2498117 34.4368136,42.8671161 33.9582537,43.6264964 L33.9582537,26.4147902 Z M50.8595656,43.3740996 C50.7345563,43.2796561 47.7588394,41.0614665 44.3453147,41.0614665 C43.6258228,41.0614665 42.9385471,41.16029 42.2873423,41.3538306 L42.2531987,41.2394035 C42.241634,41.2429622 42.2085919,41.2528172 42.1582027,41.2692421 L42.1582027,28.0249829 C42.1582027,25.3485371 39.9039051,23.1711361 37.1333246,23.1711361 C35.8746958,23.1711361 34.7223524,23.6206322 33.8398529,24.361945 C33.5680816,21.9315998 31.4310834,20.0331492 28.8438867,20.0331492 C28.8268149,20.0331492 28.8097431,20.0339704 28.7926714,20.0342442 C28.7780778,20.0339704 28.7634842,20.0331492 28.749166,20.0331492 L28.7414561,20.0331492 C28.7268625,20.0331492 28.7122689,20.0339704 28.6976753,20.0342442 C28.6806036,20.0339704 28.6638072,20.0331492 28.6464601,20.0331492 C26.0595386,20.0331492 23.9225405,21.9315998 23.6504939,24.361945 C22.7679943,23.6206322 21.6159263,23.1711361 20.3572974,23.1711361 C17.5864416,23.1711361 15.3324194,25.3485371 15.3324194,28.0249829 L15.3324194,41.2692421 C15.2817548,41.2528172 15.2489881,41.2429622 15.2374233,41.2394035 L15.2032798,41.3538306 C14.552075,41.16029 13.8647993,41.0614665 13.1450321,41.0614665 C9.73150732,41.0614665 6.75579045,43.2796561 6.63050581,43.3740996 L4.9054326,44.6774195 C4.9054326,44.6774195 5.26806969,44.5317849 5.87301556,44.5317849 C7.25390018,44.5317849 9.89589179,45.2925339 12.3556011,50.2903728 C12.4211346,50.471321 12.4863928,50.6498054 12.5511002,50.8271949 C17.1992983,63.5425708 20.1469294,67.8609641 28.6974,68.0159062 L28.698226,68.0159062 C28.713921,68.0159062 28.729616,68.0150849 28.7450357,68.0145374 C28.761006,68.0150849 28.7764257,68.0159062 28.792396,68.0159062 L28.7932221,68.0159062 C37.3434174,67.8609641 40.2913238,63.5425708 44.9389711,50.8271949 C45.0042293,50.6498054 45.0692121,50.471321 45.1344703,50.2903728 C47.594455,45.2925339 50.2367219,44.5317849 51.6176065,44.5317849 C52.222277,44.5317849 52.5851895,44.6774195 52.5851895,44.6774195 L50.8595656,43.3740996 Z" id="Fill-17" fill="#FF7491"></path>
                    <path d="M26.6636309,53.3290982 C26.6636309,53.3290982 25.0115257,48.11883 22.6930714,47.107053 C20.3748924,46.095276 19.0934094,49.5617619 19.0934094,49.5617619 C19.0934094,49.5617619 23.5224282,53.7509457 25.1241442,62.2793278 C26.7258602,70.8077099 26.2786904,58.3299483 26.2786904,58.3299483 L26.6636309,53.3290982 Z" id="Fill-18" fill="#FFFFFF"></path>
                    <path d="M30.7606867,53.3290982 C30.7606867,53.3290982 32.4127919,48.11883 34.7308883,47.107053 C37.0493426,46.095276 38.3308256,49.5617619 38.3308256,49.5617619 C38.3308256,49.5617619 33.9018068,53.7509457 32.3001734,62.2793278 C30.698182,70.8077099 31.1453518,58.3299483 31.1453518,58.3299483 L30.7606867,53.3290982 Z" id="Fill-19" fill="#FFFFFF"></path>
                </g>
                <path d="M88.2996461,52.5881288 C88.565027,53.4239842 88.8605605,53.9613117 89.1862553,54.2001275 C89.5119501,54.4389434 90.1090483,54.5583495 90.9775678,54.5583495 L90.9775678,55.5971931 L82.6904858,55.5971931 L82.6904858,54.5583495 L84.0656348,54.5583495 C84.7652755,54.5583495 85.1150906,54.2598342 85.1150906,53.6627946 C85.1150906,53.4239788 85.0789028,53.1851666 85.0065262,52.9463508 L82.7266739,46.6416447 L74.6929088,46.6416447 L72.4130566,53.0538173 C72.3165544,53.3881595 72.2683041,53.6269717 72.2683041,53.7702612 C72.2683041,54.295656 72.6060566,54.5583495 73.2815717,54.5583495 L74.5843445,54.5583495 L74.5843445,55.5971931 L68.1428571,55.5971931 L68.1428571,54.5583495 C68.7701212,54.5583495 69.2526248,54.4926761 69.5903824,54.3613274 C69.92814,54.2299787 70.1995482,54.0150477 70.4046153,53.7165279 C70.6096824,53.4180082 70.8207777,52.9582946 71.0379076,52.3373735 L78.7097914,31.9545455 L80.7363267,31.9545455 L88.2996461,52.5881288 Z" id="Path" fill="#FFFFFF" fill-rule="nonzero"></path>
                <polygon id="Path" fill="#FF7491" fill-rule="nonzero" points="82.2924164 45.4236902 78.7459795 35.6800536 78.6374151 35.6800536 75.1633546 45.4236902"></polygon>
                <path d="M107.474686,52.623951 C107.474686,53.2209906 107.522936,53.6448823 107.619439,53.8956389 C107.715941,54.1463955 107.933067,54.3195344 108.270825,54.4150607 C108.608583,54.510587 109.175524,54.5583495 109.971667,54.5583495 L109.971667,55.5971931 L102.046466,55.5971931 L102.046466,54.5583495 L102.386508,54.555382 C102.98008,54.5445012 103.409551,54.503698 103.674932,54.4329718 C103.988564,54.3493863 104.193629,54.188188 104.290131,53.9493722 C104.386633,53.7105564 104.434883,53.292635 104.434883,52.6955954 L104.434883,43.9908024 C104.434883,42.8444865 104.163475,41.9190891 103.62065,41.2145824 C103.077825,40.5100758 102.227413,40.1578277 101.069387,40.1578277 C100.128491,40.1578277 99.3323599,40.3787291 98.6809702,40.8205383 C98.0295806,41.2623476 97.402326,41.8892297 96.7991874,42.7012035 L96.7991874,52.6955954 C96.7991874,53.292635 96.8474378,53.7165267 96.94394,53.9672833 C97.0404421,54.2180399 97.2455061,54.3792381 97.5591382,54.4508829 C97.8727702,54.5225276 98.4035242,54.5583495 99.1514159,54.5583495 L99.1514159,55.5971931 L91.2262153,55.5971931 L91.2262153,54.5583495 L91.5773912,54.554958 C92.1913773,54.5425228 92.6412625,54.4958907 92.9270574,54.4150607 C93.264815,54.3195344 93.4759103,54.1523658 93.5603497,53.91355 C93.6447891,53.6747342 93.6870082,53.2448722 93.6870082,52.623951 L93.6870082,41.9489374 C93.6870082,41.3280163 93.6146326,40.9160652 93.4698794,40.7130717 C93.3251261,40.5100783 93.0476866,40.4085831 92.6375524,40.4085831 L91.4071559,40.4085831 L91.4071559,39.3339173 L95.6773554,38.6174734 L96.690623,38.6174734 L96.690623,41.2683157 L96.7268112,41.2683157 C97.5470796,40.3130525 98.4276486,39.6025861 99.3685447,39.1368952 C100.309441,38.6712044 101.383011,38.4383625 102.589288,38.4383625 C105.846236,38.4383625 107.474686,40.1578105 107.474686,43.5967583 L107.474686,52.623951 Z" id="Path" fill="#FFFFFF" fill-rule="nonzero"></path>
                <path d="M127.15636,55.024038 C126.697975,55.310617 126.227534,55.5374886 125.745023,55.7046597 C125.262512,55.8718307 124.635257,55.955415 123.86324,55.955415 C123.139474,55.955415 122.590626,55.8121277 122.21668,55.5255487 C121.842734,55.2389697 121.619576,54.6180579 121.5472,53.6627946 C120.654555,54.4270052 119.786048,55.0061249 118.941654,55.400171 C118.09726,55.7942171 117.156378,55.9912372 116.11898,55.9912372 C114.792075,55.9912372 113.712473,55.6867516 112.880142,55.0777713 C112.047811,54.4687909 111.631652,53.5792154 111.631652,52.4090179 C111.631652,50.7373072 112.488096,49.2805525 114.201009,48.0387103 C115.913922,46.796868 118.362628,45.9252034 121.5472,45.4236902 L121.5472,43.3460029 C121.5472,42.1280423 121.299916,41.2205558 120.805343,40.6235162 C120.310769,40.0264767 119.460357,39.7279614 118.25408,39.7279614 C117.409686,39.7279614 116.649743,39.8831894 115.974227,40.1936499 C115.298712,40.5041105 114.96096,40.8145664 114.96096,41.125027 C114.96096,41.2713016 115.048696,41.4221454 115.224172,41.5775618 L115.304747,41.6444488 C115.53394,41.8235606 115.714878,42.0026698 115.847569,42.1817817 C115.980259,42.3608935 116.046604,42.6295573 116.046604,42.987781 C116.046604,43.4892942 115.901853,43.8893047 115.612346,44.1878245 C115.32284,44.4863443 114.912712,44.6356019 114.38195,44.6356019 C113.827062,44.6356019 113.386778,44.4684333 113.061083,44.1340912 C112.735388,43.7997491 112.572543,43.3340652 112.572543,42.7370257 C112.572543,41.9966966 112.819826,41.3041411 113.3144,40.6593384 C113.808973,40.0145357 114.556854,39.4891488 115.558064,39.0831619 C116.559274,38.677175 117.783627,38.4741846 119.231159,38.4741846 C121.0647,38.4741846 122.41571,38.8443436 123.28423,39.5846726 C124.152749,40.3250017 124.587003,41.6145877 124.587003,43.4534695 L124.587003,51.9433294 C124.587003,52.874711 124.689535,53.5135338 124.894602,53.8598167 C125.099669,54.2060996 125.43139,54.3792385 125.889775,54.3792385 C126.179282,54.3792385 126.517034,54.2956534 126.903043,54.1284831 L127.15636,55.024038 Z" id="Path" fill="#FFFFFF" fill-rule="nonzero"></path>
                <path d="M114.888583,51.5492852 C114.888583,52.3851406 115.129835,53.0120227 115.612346,53.4299504 C116.094855,53.8478781 116.794487,54.0568388 117.711258,54.0568388 C118.386773,54.0568388 119.032121,53.9135514 119.647323,53.6269724 C120.262524,53.3403935 120.89581,52.9582939 121.5472,52.4806623 L121.5472,46.5700003 C119.303524,47.047632 117.632856,47.6864547 116.535143,48.4864877 C115.437431,49.2865207 114.888583,50.307443 114.888583,51.5492852 Z" id="Path" fill="#FF7491" fill-rule="nonzero"></path>
                <path d="M138.225259,38.4025403 C139.093778,38.4025403 139.763252,38.6532931 140.2337,39.1548063 C140.704148,39.6563195 140.939368,40.348875 140.939368,41.2324935 C140.939368,41.948941 140.770492,42.5101497 140.432735,42.9161366 C140.094977,43.3221235 139.576286,43.5251139 138.876645,43.5251139 C138.273506,43.5251139 137.809097,43.369886 137.483402,43.0594254 C137.157707,42.7489648 136.994862,42.342984 136.994862,41.8414708 C136.994862,41.5548918 137.043112,41.3160796 137.139615,41.125027 C137.216816,40.9721848 137.324897,40.8117026 137.46386,40.643577 L137.573872,40.5160497 C137.766876,40.3011154 137.863377,40.1339469 137.863377,40.014539 C137.863377,39.7996047 137.706564,39.6921392 137.392932,39.6921392 C136.934546,39.6921392 136.446011,39.9190108 135.927312,40.3727609 C135.408613,40.8265109 134.956266,41.4414525 134.570257,42.2176039 C134.184249,42.9937553 133.942997,43.8355684 133.846495,44.7430685 L133.846495,52.623951 C133.846495,53.2448722 133.900776,53.6807045 134.009341,53.9314611 C134.117906,54.1822177 134.353127,54.3493863 134.71501,54.4329718 C135.076893,54.5165573 135.692085,54.5583495 136.560604,54.5583495 L136.560604,55.5971931 L128.273522,55.5971931 L128.273522,54.5583495 L128.624698,54.554958 C129.238684,54.5425228 129.68857,54.4958907 129.974365,54.4150607 C130.312122,54.3195344 130.523218,54.1523658 130.607657,53.91355 C130.68506,53.6946355 130.726986,53.3151891 130.733436,52.7752009 L130.734315,41.9489374 C130.734315,41.3280163 130.66194,40.9160652 130.517187,40.7130717 C130.372433,40.5100783 130.094994,40.4085831 129.68486,40.4085831 L128.454463,40.4085831 L128.454463,39.3339173 L132.724663,38.6174734 L133.73793,38.6174734 L133.73793,41.9847596 L133.774118,41.9847596 C134.304878,40.9817332 134.908013,40.1339497 135.583525,39.4413839 C136.25904,38.748818 137.139609,38.4025403 138.225259,38.4025403 Z" id="Path" fill="#FFFFFF" fill-rule="nonzero"></path>
                <path d="M158.015497,55.024038 C157.557111,55.310617 157.08667,55.5374886 156.60416,55.7046597 C156.121649,55.8718307 155.494394,55.955415 154.722377,55.955415 C153.998611,55.955415 153.449763,55.8121277 153.075817,55.5255487 C152.701871,55.2389697 152.478713,54.6180579 152.406336,53.6627946 C151.513691,54.4270052 150.645185,55.0061249 149.800791,55.400171 C148.956397,55.7942171 148.015515,55.9912372 146.978117,55.9912372 C145.651212,55.9912372 144.57161,55.6867516 143.739279,55.0777713 C142.906948,54.4687909 142.490789,53.5792154 142.490789,52.4090179 C142.490789,50.7373072 143.347232,49.2805525 145.060146,48.0387103 C146.773059,46.796868 149.221765,45.9252034 152.406336,45.4236902 L152.406336,43.3460029 C152.406336,42.1280423 152.159053,41.2205558 151.66448,40.6235162 C151.169906,40.0264767 150.319494,39.7279614 149.113216,39.7279614 C148.268823,39.7279614 147.508879,39.8831894 146.833364,40.1936499 C146.157849,40.5041105 145.820097,40.8145664 145.820097,41.125027 C145.820097,41.2713016 145.907833,41.4221454 146.083308,41.5775618 L146.163884,41.6444488 C146.393076,41.8235606 146.574015,42.0026698 146.706706,42.1817817 C146.839396,42.3608935 146.905741,42.6295573 146.905741,42.987781 C146.905741,43.4892942 146.760989,43.8893047 146.471483,44.1878245 C146.181976,44.4863443 145.771848,44.6356019 145.241086,44.6356019 C144.686199,44.6356019 144.245915,44.4684333 143.92022,44.1340912 C143.594525,43.7997491 143.43168,43.3340652 143.43168,42.7370257 C143.43168,41.9966966 143.678963,41.3041411 144.173537,40.6593384 C144.66811,40.0145357 145.415991,39.4891488 146.417201,39.0831619 C147.418411,38.677175 148.642764,38.4741846 150.090296,38.4741846 C151.923837,38.4741846 153.274847,38.8443436 154.143367,39.5846726 C155.011886,40.3250017 155.446139,41.6145877 155.446139,43.4534695 L155.446139,51.9433294 C155.446139,52.874711 155.548671,53.5135338 155.753739,53.8598167 C155.958806,54.2060996 156.290527,54.3792385 156.748912,54.3792385 C157.038419,54.3792385 157.376171,54.2956534 157.76218,54.1284831 L158.015497,55.024038 Z" id="Path" fill="#FFFFFF" fill-rule="nonzero"></path>
                <path d="M145.452655,51.8649333 C145.452655,50.6257408 146.010239,49.6069968 147.125424,48.8086709 C148.24061,48.0103449 149.937872,47.3728853 152.217262,46.8962728 L152.217262,52.794323 C151.555504,53.2709355 150.912137,53.6522198 150.287143,53.9381873 C149.662149,54.2241548 149.006528,54.3671364 148.32026,54.3671364 C147.388896,54.3671364 146.678127,54.1586216 146.187938,53.7415856 C145.697747,53.3245497 145.452655,52.6990052 145.452655,51.8649333 Z" id="Path" fill="#FF7491" fill-rule="nonzero"></path>
            </g>
        </g>
    </g>
</svg>